<svg xmlns="http://www.w3.org/2000/svg" class="block size-full" fill="none" preserveAspectRatio="none" viewBox="0 0 3314.21 2213.43"><g clip-path="url(#clip0_1_20)" id="Logo_Mark"><path d="M1025.27 221.953C1044.67 189.449 1091.75 189.449 1111.14 221.953L1689.92 1191.88C1709.81 1225.21 1685.8 1267.5 1646.99 1267.5H489.429C473.77 1267.5 455.457 1271.23 448.072 1285.04L37.6401 2052.36C32.4304 2062.1 20.3112 2065.78 10.5713 2060.57C0.831316 2055.36 -2.84114 2043.24 2.36859 2033.5L436.18 1222.46C438.271 1218.55 439.259 1214.18 439.95 1209.8C440.907 1203.73 443.036 1197.67 446.492 1191.88L1025.27 221.953Z" fill="var(--fill-0, #8B5CF6)" id="Union"/><circle cx="1068.21" cy="75" fill="var(--fill-0, #8B5CF6)" id="Ellipse 1" r="75"/><path d="M1315.21 1000H820.207L1067.71 525L1315.21 1000Z" fill="var(--fill-0, white)" id="Union_2"/><path d="M2138.93 2031.4C2142.58 2038.23 2149.7 2042.5 2157.44 2042.5H3039.21C3050.8 2042.5 3060.21 2033.1 3060.21 2021.5V1947.6C3060.21 1931.43 3077.71 1921.33 3091.71 1929.41L3303.71 2051.81C3317.71 2059.9 3317.71 2080.1 3303.71 2088.19L3091.71 2210.58C3077.71 2218.67 3060.21 2208.56 3060.21 2192.4V2118.5C3060.21 2106.9 3050.8 2097.5 3039.21 2097.5H2128.71C2117.11 2097.5 2107.71 2088.1 2107.71 2076.5V2063.11C2107.71 2059.66 2106.85 2056.25 2105.22 2053.21L1663.64 1227.64C1658.43 1217.9 1662.1 1205.78 1671.84 1200.57C1681.58 1195.36 1693.7 1199.03 1698.91 1208.77L2138.93 2031.4Z" data-figma-bg-blur-radius="4" fill="var(--fill-0, #8B5CF6)" id="Union_3"/></g><defs><clipPath id="bgblur_1_1_20_clip_path" transform="translate(-1657.27 -1194.2)"><path d="M2138.93 2031.4C2142.58 2038.23 2149.7 2042.5 2157.44 2042.5H3039.21C3050.8 2042.5 3060.21 2033.1 3060.21 2021.5V1947.6C3060.21 1931.43 3077.71 1921.33 3091.71 1929.41L3303.71 2051.81C3317.71 2059.9 3317.71 2080.1 3303.71 2088.19L3091.71 2210.58C3077.71 2218.67 3060.21 2208.56 3060.21 2192.4V2118.5C3060.21 2106.9 3050.8 2097.5 3039.21 2097.5H2128.71C2117.11 2097.5 2107.71 2088.1 2107.71 2076.5V2063.11C2107.71 2059.66 2106.85 2056.25 2105.22 2053.21L1663.64 1227.64C1658.43 1217.9 1662.1 1205.78 1671.84 1200.57C1681.58 1195.36 1693.7 1199.03 1698.91 1208.77L2138.93 2031.4Z"/></clipPath><clipPath id="clip0_1_20"><rect fill="white" height="2213.43" width="3314.21"/></clipPath></defs></svg>